# xmcd CD database file
#
# Track frame offsets:
#	150
#	19196
#	39969
#	57978
#	74967
#	90953
#	112372
#	128774
#	147781
#	168588
#	186587
#	203551
#	219423
#	240770
#	257153
#	263975
#	270577
#
# Disc length: 3791 seconds
#
# Revision: 1
# Processed by: cddbd v1.5.2PL0 Copyright (c) Steve Scherf et al.
# Submitted via: CDex 1.70beta3
#
DISCID=fd0ecd11
DTITLE=てれび戦士2008 - 天才てれびくんMAX　MTK the 13th
DYEAR=2008
DGENRE=J-POP
TTITLE0=てれび戦士2008 - セカイをまわせ！～ぼくらのカーニバル～
TTITLE1=武田聖夜 島田翼 田中理来 - 勇気は時を超える
TTITLE2=藤井千帆 加藤ジーナ 鍋本帆乃香 中村あやの 水本凛 - ラズベリー・パンチ
TTITLE3=渡邉聖斗 荒木次元 丸山瀬南 吉野翔太 ミッチェル・ベンジャミン 伊藤元太 木村遼 - スピードスター
TTITLE4=武田聖夜 島田翼 田中理来 - Forever the Moment ～永遠の一瞬～
TTITLE5=小関裕太 千葉一磨 川﨑樹音 細田羅夢 - ひまわり
TTITLE6=笠原拓巳 長谷川あかり 山田樹里亜 - ほんとはあの娘が好きなのに・・・
TTITLE7=セカイをまわせ！～ぼくらのカーニバル～ (オリジナル・カラオケ)
TTITLE8=勇気は時を超える (オリジナル・カラオケ)
TTITLE9=ラズベリー・パンチ (オリジナル・カラオケ)
TTITLE10=スピードスター (オリジナル・カラオケ)
TTITLE11=Forever the Moment ～永遠の一瞬～ (オリジナル・カラオケ)
TTITLE12=ひまわり (オリジナル・カラオケ)
TTITLE13=ほんとはあの娘が好きなのに・・・ (オリジナル・カラオケ)
TTITLE14=てれび戦士2008 - セカイをまわせ！～ぼくらのカーニバル～ (ライブバージョン)
TTITLE15=武田聖夜 島田翼 田中理来 - 勇気は時を超える (ライブバージョン)
TTITLE16=小関裕太 千葉一磨 川﨑樹音 細田羅夢 - ひまわり (ライブバージョン)
EXTD=YEAR: 2008
EXTT0=
EXTT1=
EXTT2=
EXTT3=
EXTT4=
EXTT5=
EXTT6=
EXTT7=
EXTT8=
EXTT9=
EXTT10=
EXTT11=
EXTT12=
EXTT13=
EXTT14=
EXTT15=
EXTT16=
PLAYORDER=
